<svg width="20" height="20" viewBox="0 0 20 20" fill="none" xmlns="http://www.w3.org/2000/svg">
<path d="M10.0096 8.44111e-08C9.43865 -0.000199916 8.85566 0.355004 8.51036 1.062L6.38646 5.4347L1.54525 6.12181C-0.0116454 6.33841 -0.516046 7.86581 0.608254 8.96381L4.10636 12.3688L3.29435 17.1478C3.02695 18.6948 4.31005 19.6298 5.69935 18.8968C6.23616 18.6128 8.99625 17.1828 10.0096 16.6478L14.3198 18.8968C15.7107 19.6298 16.9978 18.6958 16.7248 17.1478L15.8815 12.3688L19.3797 8.96381C20.5093 7.86981 20.0309 6.34281 18.4739 6.12181L13.6015 5.4347L11.5088 1.062C11.164 0.354704 10.5805 0.000300085 10.0096 8.44111e-08ZM10.0096 2.5924L12.071 6.80901C12.2164 7.10731 12.4921 7.29341 12.8206 7.34001L17.5057 8.0268L14.1012 11.3068C13.8629 11.5378 13.7625 11.8548 13.8201 12.1808L14.6322 16.8038L10.4781 14.6178C10.1863 14.4638 9.83276 14.4638 9.54106 14.6178C9.02276 14.8908 6.48956 16.2218 5.38696 16.8038L6.16786 12.2128C6.22375 11.8878 6.12206 11.5368 5.88676 11.3068L2.51345 8.0268L7.16726 7.3712C7.49666 7.3254 7.80216 7.10781 7.94816 6.80901L10.0096 2.5924Z" fill="#D7E7CD"/>
</svg>
